<?xml version="1.0" standalone="no"?>
<!DOCTYPE svg PUBLIC "-//W3C//DTD SVG 20010904//EN"
 "http://www.w3.org/TR/2001/REC-SVG-20010904/DTD/svg10.dtd">
<svg version="1.0" xmlns="http://www.w3.org/2000/svg"
 width="500.000000pt" height="500.000000pt" viewBox="0 0 500.000000 500.000000"
 preserveAspectRatio="xMidYMid meet">

<g transform="translate(0.000000,500.000000) scale(0.100000,-0.100000)"
fill="#000000" stroke="none">
<path d="M0 2500 l0 -2500 2500 0 2500 0 0 2500 0 2500 -2500 0 -2500 0 0
-2500z m2430 740 c0 -352 -2 -640 -5 -640 -10 0 -651 503 -659 517 -15 26 13
191 47 283 67 178 190 316 352 396 76 38 209 82 253 83 9 1 12 -133 12 -639z
m310 608 c137 -42 273 -132 355 -236 98 -123 169 -317 163 -443 l-3 -63 -320
-254 -320 -254 -7 64 c-4 36 -9 324 -10 642 l-3 577 40 -7 c22 -3 69 -15 105
-26z m-1255 -760 l60 -43 -65 -3 -65 -3 -380 -339 -380 -339 -49 -1 -48 0 48
44 c27 24 218 197 424 384 206 188 380 341 385 341 6 1 37 -18 70 -41z m2453
-245 c174 -158 365 -331 424 -385 l107 -98 -47 0 -48 0 -300 268 c-165 147
-334 297 -375 334 l-75 66 -67 4 c-37 2 -67 5 -67 8 1 7 113 88 123 89 4 1
150 -128 325 -286z m-2182 -46 c30 -17 513 -430 513 -439 1 -5 -16 -8 -37 -8
-33 0 -55 14 -192 126 -209 171 -308 244 -330 244 -46 0 -63 -12 -328 -228
-156 -128 -164 -133 -204 -130 l-41 3 184 160 c258 225 291 252 325 270 35 18
81 19 110 2z m1656 -23 c32 -21 390 -326 458 -390 l25 -24 -45 0 c-43 1 -53 7
-215 140 -190 157 -258 206 -295 215 -34 8 -96 -34 -323 -220 -172 -141 -180
-146 -219 -143 l-41 3 243 210 c266 229 261 225 305 236 38 9 61 3 107 -27z
m-1626 -848 c34 -87 68 -164 75 -172 10 -12 2 -14 -47 -14 -52 0 -56 1 -39 14
17 12 18 18 7 40 -11 25 -14 26 -107 26 -95 0 -96 0 -106 -27 -8 -22 -7 -30 6
-39 13 -10 9 -12 -25 -16 -46 -4 -47 -2 -21 20 11 10 48 82 82 162 58 135 81
173 103 167 4 -2 37 -74 72 -161z m1692 144 c46 -21 46 -25 8 -75 -15 -20 -15
-19 -16 6 0 33 -38 68 -81 75 -40 6 -65 -10 -74 -46 -10 -41 24 -74 96 -94 78
-23 109 -52 109 -105 0 -32 -6 -44 -31 -65 -17 -14 -42 -29 -55 -32 -37 -9
-113 3 -145 24 l-28 17 22 35 22 35 5 -30 c7 -41 64 -78 108 -71 48 7 62 23
62 68 0 36 -3 40 -42 58 -24 11 -49 20 -56 20 -51 1 -112 60 -112 108 0 24 36
71 64 82 36 15 99 10 144 -10z m-1385 3 c-10 -3 -13 -46 -13 -164 l0 -159 61
0 c58 0 64 2 95 36 37 38 39 37 24 -16 l-10 -35 -132 3 c-90 3 -126 7 -110 13
21 8 22 12 22 158 0 132 -2 151 -17 160 -14 8 -5 10 37 10 30 0 49 -3 43 -6z
m599 -40 l-16 -48 -7 34 c-8 40 -23 51 -66 51 l-33 0 0 -159 c0 -144 2 -160
18 -164 9 -3 -12 -5 -48 -5 -36 0 -58 2 -50 5 27 11 30 26 30 176 l0 147 -31
0 c-41 0 -66 -15 -91 -53 -18 -29 -19 -29 -14 -7 3 14 6 35 6 48 0 22 1 22
159 22 l160 0 -17 -47z m220 38 c-11 -6 -13 -38 -10 -140 3 -131 3 -133 31
-157 50 -43 135 -23 156 37 6 18 11 76 11 130 0 86 -3 102 -20 119 l-20 20 41
0 c37 0 39 -1 25 -16 -13 -12 -16 -39 -16 -127 0 -125 -8 -150 -59 -184 -62
-42 -155 -18 -188 47 -8 16 -13 69 -13 142 0 101 -2 118 -17 127 -14 8 -5 10
37 11 34 0 50 -4 42 -9z m-647 -461 c3 -5 -18 -21 -47 -35 l-53 -26 40 35 c43
38 50 41 60 26z m-1046 -227 c29 -76 60 -148 67 -160 14 -23 14 -23 -36 -23
-46 0 -50 2 -36 15 10 11 13 22 7 38 -8 20 -16 22 -95 25 -85 3 -86 2 -98 -24
-11 -23 -10 -28 7 -40 17 -13 16 -14 -20 -14 -36 0 -37 1 -22 18 8 9 41 76 72
147 50 115 74 155 95 155 4 0 30 -62 59 -137z m2313 113 c30 -19 29 -27 -12
-76 -20 -23 -21 -23 -15 -4 12 45 -20 80 -90 98 -11 3 5 4 35 2 32 -1 66 -10
82 -20z m439 -126 c28 -74 59 -143 67 -152 14 -17 12 -18 -39 -17 -30 0 -48 3
-41 6 6 2 12 14 12 26 0 43 -12 48 -100 45 -66 -2 -85 -7 -94 -20 -8 -13 -8
-23 2 -38 11 -19 10 -20 -25 -20 -29 1 -34 3 -22 10 9 5 42 69 74 142 54 126
89 179 106 161 4 -4 31 -69 60 -143z m-2355 18 l60 -121 44 101 c24 56 45 100
48 98 3 -4 -89 -232 -106 -260 -3 -5 -33 47 -68 115 l-63 124 0 -95 c-1 -64 4
-104 13 -122 15 -28 14 -28 -17 -28 -24 0 -28 3 -19 12 8 8 12 53 12 137 0
102 -3 128 -17 143 -15 17 -14 18 18 18 34 0 35 -2 95 -122z m216 -25 c-2
-112 0 -148 10 -154 8 -5 -7 -9 -37 -9 -31 0 -45 3 -37 9 11 6 13 41 12 147
-1 77 -1 142 -1 147 1 4 13 7 29 7 l27 0 -3 -147z m298 72 l0 -75 45 0 c32 0
51 6 65 20 l20 20 0 -42 c0 -39 -1 -40 -18 -25 -12 11 -36 17 -65 17 l-47 0 0
-70 0 -70 56 0 c52 0 59 3 90 36 37 38 39 37 24 -16 l-10 -35 -120 3 c-107 3
-119 5 -105 18 20 20 22 279 3 287 -7 3 4 6 25 6 l37 1 0 -75z m162 45 c5 -36
2 -37 -21 -9 -9 12 -35 25 -57 29 -38 7 -37 8 17 9 56 1 57 0 61 -29z m432 19
c13 -7 30 -25 37 -41 16 -39 -7 -89 -50 -110 l-31 -15 21 -29 c12 -16 38 -46
58 -66 l35 -38 -35 0 c-31 0 -39 7 -81 65 -40 55 -52 65 -78 65 -30 0 -30 -1
-30 -55 0 -41 4 -56 18 -64 13 -8 4 -10 -38 -10 -42 0 -51 2 -37 10 15 9 17
27 17 142 0 90 -4 137 -12 145 -16 16 171 17 206 1z m328 -136 c-2 -112 0
-148 10 -154 8 -5 -7 -8 -37 -8 -27 0 -44 3 -37 6 9 3 12 43 12 148 0 105 -3
145 -12 148 -7 3 5 6 27 6 l40 1 -3 -147z m316 130 c-35 -22 -48 -53 -48 -114
0 -59 17 -97 60 -133 37 -30 94 -35 140 -11 40 21 38 10 -2 -15 -39 -24 -113
-26 -162 -6 -88 37 -120 169 -58 240 20 22 73 56 87 56 6 0 -2 -8 -17 -17z"/>
<path d="M1638 1952 c-21 -48 -40 -95 -44 -104 -6 -16 2 -18 80 -18 47 0 86 3
86 8 1 12 -75 202 -80 202 -3 0 -22 -40 -42 -88z"/>
<path d="M1087 1391 c-20 -49 -37 -92 -37 -95 0 -3 34 -6 75 -6 41 0 75 3 75
8 0 10 -61 165 -69 174 -3 4 -23 -33 -44 -81z"/>
<path d="M3833 1388 l-40 -93 75 -3 c41 -2 76 -1 78 1 3 3 -63 177 -71 185 -1
1 -20 -39 -42 -90z"/>
<path d="M2570 1426 c0 -82 3 -86 69 -86 56 0 81 23 81 74 0 63 -26 86 -95 86
l-55 0 0 -74z"/>
</g>
</svg>
