<svg width="32" height="32" viewBox="0 0 32 32" fill="none" xmlns="http://www.w3.org/2000/svg">
  <!-- Background circle -->
  <circle cx="16" cy="16" r="16" fill="#000000"/>
  
  <!-- Mountains and sun/moon design -->
  <g fill="#D4AF37">
    <!-- Central semi-circle (sun/moon) -->
    <path d="M14 8C14 8 15 7 16 7C17 7 18 8 18 8C18 8 18.5 9 18.5 10C18.5 11 18 12 18 12C18 12 17 13 16 13C15 13 14 12 14 12C14 12 13.5 11 13.5 10C13.5 9 14 8 14 8Z"/>
    
    <!-- Left mountains -->
    <path d="M8 12L10 10L12 12L14 10L16 12V16H8V12Z"/>
    
    <!-- Right mountains -->
    <path d="M16 12L18 10L20 12L22 10L24 12V16H16V12Z"/>
  </g>
  
  <!-- Text "ALTUS" -->
  <text x="16" y="22" text-anchor="middle" fill="#D4AF37" font-family="serif" font-size="4" font-weight="bold">ALTUS</text>
  
  <!-- Text "AMÉRICA" -->
  <text x="16" y="26" text-anchor="middle" fill="#D4AF37" font-family="serif" font-size="3" font-weight="bold">AMÉRICA</text>
</svg> 